<?xml version="1.0" encoding="UTF-8"?>
<svg version="1.1" xmlns="http://www.w3.org/2000/svg" width="159" height="47">
<path d="M0 0 C3.29698191 2.55536251 5.3682407 4.90607364 6.22265625 8.98828125 C6.14907639 13.62381225 5.8357519 16.66925564 2.97265625 20.36328125 C-1.07824304 24.23004875 -3.10404745 25.01484151 -8.71484375 24.92578125 C-13.32056565 24.18573142 -15.57607781 22.34198842 -18.77734375 18.98828125 C-21.0286482 15.36661757 -21.0578802 12.18567871 -20.3828125 7.984375 C-19.0706331 3.65841581 -16.2872117 0.92684781 -12.46484375 -1.44921875 C-8.02904585 -2.37764157 -3.95848593 -2.25329199 0 0 Z M-13.77734375 5.98828125 C-15.69134311 8.51128041 -15.78135236 9.79586804 -15.71484375 12.98828125 C-14.55109116 16.71228953 -13.00156235 17.89253916 -9.77734375 19.98828125 C-9.44734375 19.98828125 -9.11734375 19.98828125 -8.77734375 19.98828125 C-8.77734375 17.01828125 -8.77734375 14.04828125 -8.77734375 10.98828125 C-10.42734375 11.64828125 -12.07734375 12.30828125 -13.77734375 12.98828125 C-12.62857689 9.54198067 -11.5859346 9.07207446 -8.77734375 6.98828125 C-8.77734375 6.32828125 -8.77734375 5.66828125 -8.77734375 4.98828125 C-7.78734375 4.98828125 -6.79734375 4.98828125 -5.77734375 4.98828125 C-5.34421875 5.94734375 -5.34421875 5.94734375 -4.90234375 6.92578125 C-3.94910924 9.14034204 -3.94910924 9.14034204 -1.77734375 9.98828125 C-1.44734375 10.97828125 -1.11734375 11.96828125 -0.77734375 12.98828125 C-3.25234375 11.99828125 -3.25234375 11.99828125 -5.77734375 10.98828125 C-5.77734375 13.95828125 -5.77734375 16.92828125 -5.77734375 19.98828125 C-3.19436334 18.62881787 -1.1811641 17.52058989 0.59765625 15.17578125 C1.47120868 12.11834774 1.06469678 10.03258163 0.22265625 6.98828125 C-1.4754929 4.39636939 -2.65934705 4.02419329 -5.65234375 3.11328125 C-9.4280384 2.96225346 -10.85872883 3.63717478 -13.77734375 5.98828125 Z " fill="#35848A" transform="translate(86.77734375,12.01171875)"/>
<path d="M0 0 C1.44435765 1.20192409 2.806951 2.50074207 4.15234375 3.8125 C3.82234375 4.8025 3.49234375 5.7925 3.15234375 6.8125 C2.49234375 6.8125 1.83234375 6.8125 1.15234375 6.8125 C0.82234375 7.8025 0.49234375 8.7925 0.15234375 9.8125 C-0.40453125 8.6059375 -0.40453125 8.6059375 -0.97265625 7.375 C-2.64740554 4.57692778 -2.64740554 4.57692778 -5.72265625 3.8125 C-9.49041193 3.8125 -11.02840907 4.3154525 -13.84765625 6.8125 C-15.25791611 11.13729691 -14.86285807 13.78209636 -12.84765625 17.8125 C-14.49765625 18.4725 -16.14765625 19.1325 -17.84765625 19.8125 C-20.43068804 15.67964914 -21.34862193 12.65493568 -20.48828125 7.7734375 C-19.08806417 3.48740717 -16.3578178 0.75124907 -12.53515625 -1.625 C-8.03995268 -2.56585656 -3.8986706 -2.5056995 0 0 Z " fill="#15254A" transform="translate(86.84765625,12.1875)"/>
<path d="M0 0 C1.33415842 7.03465347 1.33415842 7.03465347 -0.125 11.25 C-3.16613149 15.71032618 -5.45110945 17.69530022 -10.8125 18.75 C-12.3903125 18.87375 -12.3903125 18.87375 -14 19 C-13.67 17.68 -13.34 16.36 -13 15 C-12.01 15 -11.02 15 -10 15 C-10 14.34 -10 13.68 -10 13 C-9.38125 12.649375 -8.7625 12.29875 -8.125 11.9375 C-5.20880061 9.27861232 -5.09547943 6.76537029 -4.4921875 2.9609375 C-4.32976562 2.31382813 -4.16734375 1.66671875 -4 1 C-2 0 -2 0 0 0 Z " fill="#3FA6A1" transform="translate(92,18)"/>
<path d="M0 0 C0.66 0 1.32 0 2 0 C2.33 0.66 2.66 1.32 3 2 C3.66 2 4.32 2 5 2 C5.99 4.31 6.98 6.62 8 9 C6.35 9.66 4.7 10.32 3 11 C0.84694043 7.14243493 -0.39253254 4.44870215 0 0 Z " fill="#1D3C56" transform="translate(66,21)"/>
<path d="M0 0 C3.29279709 0.31865778 4.86535088 1.54515351 7 4 C6.67 4.99 6.34 5.98 6 7 C5.34 7 4.68 7 4 7 C3.67 7.99 3.34 8.98 3 10 C2.54625 9.236875 2.0925 8.47375 1.625 7.6875 C0.46175508 5.76367186 -0.7529415 3.87058776 -2 2 C-1.34 1.34 -0.68 0.68 0 0 Z " fill="#214E64" transform="translate(84,12)"/>
<path d="M0 0 C2.1875 2.5 2.1875 2.5 4 5 C2.88625 5.12375 1.7725 5.2475 0.625 5.375 C-3.03103677 5.6465813 -3.03103677 5.6465813 -5 8 C-5.99 8 -6.98 8 -8 8 C-7.32253522 3.25774652 -4.9532836 0 0 0 Z " fill="#1F455B" transform="translate(81,17)"/>
<path d="M0 0 C0 0.99 0 1.98 0 3 C-1.6396875 3.556875 -1.6396875 3.556875 -3.3125 4.125 C-6.54588489 5.4798799 -6.98576455 5.97658038 -8.9375 9.1875 C-9.288125 10.115625 -9.63875 11.04375 -10 12 C-10.66 11.67 -11.32 11.34 -12 11 C-11.77581061 7.07668566 -11.04047908 6.03871912 -8.125 3.25 C-5.27796644 1.20013584 -3.52409294 0 0 0 Z " fill="#192541" transform="translate(79,10)"/>
<path d="M0 0 C0.33 2.64 0.66 5.28 1 8 C-0.98 8.33 -2.96 8.66 -5 9 C-4.4140625 2.84765625 -4.4140625 2.84765625 -4 1 C-2 0 -2 0 0 0 Z " fill="#398E91" transform="translate(92,18)"/>
<path d="M0 0 C2.64 0 5.28 0 8 0 C8 0.99 8 1.98 8 3 C7.1028125 2.6596875 7.1028125 2.6596875 6.1875 2.3125 C5.465625 2.209375 4.74375 2.10625 4 2 C2.2912354 3.37514541 2.2912354 3.37514541 1 5 C0.67 5 0.34 5 0 5 C0 3.35 0 1.7 0 0 Z " fill="#296B79" transform="translate(78,22)"/>
<path d="M0 0 C2.97 0.495 2.97 0.495 6 1 C5.34 2.65 4.68 4.3 4 6 C2.68 5.34 1.36 4.68 0 4 C0 2.68 0 1.36 0 0 Z " fill="#1A334F" transform="translate(79,10)"/>
<path d="M0 0 C2.4375 0.375 2.4375 0.375 5 1 C5.33 1.66 5.66 2.32 6 3 C3.69 3.33 1.38 3.66 -1 4 C-0.67 2.68 -0.34 1.36 0 0 Z " fill="#449A9B" transform="translate(79,33)"/>
<path d="M0 0 C0.66 0 1.32 0 2 0 C1.62403791 2.78211944 1.32681541 4.5879284 -0.4375 6.8125 C-2 8 -2 8 -4 8 C-2.66666667 5.33333333 -1.33333333 2.66666667 0 0 Z " fill="#53A9A6" transform="translate(90,26)"/>
<path d="M0 0 C2.31 0.66 4.62 1.32 7 2 C5.68 2.99 4.36 3.98 3 5 C1.5 3.625 1.5 3.625 0 2 C0 1.34 0 0.68 0 0 Z " fill="#2A5B6C" transform="translate(67,27)"/>
<path d="M0 0 C1.98 0.99 1.98 0.99 4 2 C3.67 2.99 3.34 3.98 3 5 C2.34 5 1.68 5 1 5 C0.67 5.99 0.34 6.98 0 8 C0 5.36 0 2.72 0 0 Z " fill="#2E6A75" transform="translate(87,14)"/>
</svg>
